<mxfile host="app.diagrams.net" modified="2023-07-04T13:47:53.137Z" agent="Mozilla/5.0 (Windows NT 10.0; Win64; x64) AppleWebKit/537.36 (KHTML, like Gecko) Chrome/114.0.0.0 Safari/537.36" version="21.5.2" etag="b1EUd4ep9G96ZNj7jRbg" type="github">
  <diagram name="PÃ¡gina-1" id="7Rf3nZpBN-GeUFoINvoK">
    <mxGraphModel>
      <root>
        <mxCell id="0" />
        <mxCell id="1" parent="0" />
      </root>
    </mxGraphModel>
  </diagram>
</mxfile>
